<svg width="14" height="14" viewBox="0 0 14 14" fill="none" xmlns="http://www.w3.org/2000/svg">
<path d="M12.5 0H1.5C0.65625 0 0 0.6875 0 1.5V12.5C0 13.3438 0.65625 14 1.5 14H12.5C13.3125 14 14 13.3438 14 12.5V1.5C14 0.6875 13.3125 0 12.5 0ZM4.5 8.96875C3.40625 8.96875 2.53125 8.09375 2.53125 7C2.53125 5.90625 3.40625 5 4.5 5C5.59375 5 6.5 5.90625 6.5 7C6.5 8.09375 5.59375 8.96875 4.5 8.96875ZM9.46875 8.96875C8.375 8.96875 7.5 8.09375 7.5 7C7.5 5.90625 8.375 5 9.46875 5C10.5625 5 11.4688 5.90625 11.4688 7C11.4688 8.09375 10.5625 8.96875 9.46875 8.96875Z" fill="white"/>
</svg>
